#usda 1.0
(
    defaultPrim = "Cell"
    endTimeCode = 168
    framesPerSecond = 24
    metersPerUnit = 1
    startTimeCode = 1
    timeCodesPerSecond = 24
    upAxis = "Y"
)

def Xform "Cell" (
    kind = "assembly"
)
{
    def Xform "Turntable" (
        prepend references = @assets/turntable.usda@
    )
    {
        over "PlatterMount"
        {
            over "Platter"
            {
                float xformOp:rotateY.timeSamples = {
                    1: 0,
                    168: 1440,
                }
                uniform token[] xformOpOrder = ["xformOp:rotateY"]
            }
        }

        over "TonearmBase"
        {
            over "TonearmPivot"
            {
                float xformOp:rotateY.timeSamples = {
                    1: 0,
                    118: 0,
                    136: -28,
                    168: -28,
                }
                uniform token[] xformOpOrder = ["xformOp:rotateY"]
            }
        }
    }

    def Xform "Arm" (
        prepend references = @assets/arm.usda@
    )
    {
        double3 xformOp:translate = (-0.12, 0, -0.42)
        uniform token[] xformOpOrder = ["xformOp:translate"]

        over "Base"
        {
            over "Yoke"
            {
                float xformOp:rotateY.timeSamples = {
                    1: 15.945395,
                    22: -36.869896,
                    40: -36.869896,
                    58: -36.869896,
                    92: 15.945395,
                    112: 15.945395,
                    132: 15.945395,
                    168: 15.945395,
                }

                over "UpperArm"
                {
                    float xformOp:rotateX.timeSamples = {
                        1: -13,
                        22: -13,
                        40: 5,
                        58: -13,
                        92: -13,
                        112: -6.5,
                        132: -13,
                        168: -13,
                    }

                    over "Forearm"
                    {
                        float xformOp:rotateX.timeSamples = {
                            1: 48,
                            22: 42,
                            40: 39,
                            58: 42,
                            92: 48,
                            112: 67,
                            132: 48,
                            168: 48,
                        }

                        over "Gripper"
                        {
                            float xformOp:rotateX.timeSamples = {
                                1: -35,
                                22: -29,
                                40: -44,
                                58: -29,
                                92: -35,
                                112: -60.5,
                                132: -35,
                                168: -35,
                            }
                        }
                    }
                }
            }
        }
    }

    def Xform "Crate" (
        prepend references = @assets/crate.usda@
    )
    {
        double3 xformOp:translate = (-0.42, 0, -0.02)
        uniform token[] xformOpOrder = ["xformOp:translate"]
    }

    def Xform "Records"
    {
        def Xform "Record0" (
            prepend references = @assets/record.usda@
        )
        {
            matrix4d xformOp:transform = ( (1, 0, 0, 0), (0, 1, 0, 0), (0, 0, 1, 0), (-0.42, 0.055, -0.02, 1) )
            matrix4d xformOp:transform.timeSamples = {
                1: ( (1, 0, 0, 0), (0, 1, 0, 0), (0, 0, 1, 0), (-0.42, 0.055, -0.02, 1) ),
                2: ( (1, 0, 0, 0), (0, 1, 0, 0), (0, 0, 1, 0), (-0.42, 0.055, -0.02, 1) ),
                3: ( (1, 0, 0, 0), (0, 1, 0, 0), (0, 0, 1, 0), (-0.42, 0.055, -0.02, 1) ),
                4: ( (1, 0, 0, 0), (0, 1, 0, 0), (0, 0, 1, 0), (-0.42, 0.055, -0.02, 1) ),
                5: ( (1, 0, 0, 0), (0, 1, 0, 0), (0, 0, 1, 0), (-0.42, 0.055, -0.02, 1) ),
                6: ( (1, 0, 0, 0), (0, 1, 0, 0), (0, 0, 1, 0), (-0.42, 0.055, -0.02, 1) ),
                7: ( (1, 0, 0, 0), (0, 1, 0, 0), (0, 0, 1, 0), (-0.42, 0.055, -0.02, 1) ),
                8: ( (1, 0, 0, 0), (0, 1, 0, 0), (0, 0, 1, 0), (-0.42, 0.055, -0.02, 1) ),
                9: ( (1, 0, 0, 0), (0, 1, 0, 0), (0, 0, 1, 0), (-0.42, 0.055, -0.02, 1) ),
                10: ( (1, 0, 0, 0), (0, 1, 0, 0), (0, 0, 1, 0), (-0.42, 0.055, -0.02, 1) ),
                11: ( (1, 0, 0, 0), (0, 1, 0, 0), (0, 0, 1, 0), (-0.42, 0.055, -0.02, 1) ),
                12: ( (1, 0, 0, 0), (0, 1, 0, 0), (0, 0, 1, 0), (-0.42, 0.055, -0.02, 1) ),
                13: ( (1, 0, 0, 0), (0, 1, 0, 0), (0, 0, 1, 0), (-0.42, 0.055, -0.02, 1) ),
                14: ( (1, 0, 0, 0), (0, 1, 0, 0), (0, 0, 1, 0), (-0.42, 0.055, -0.02, 1) ),
                15: ( (1, 0, 0, 0), (0, 1, 0, 0), (0, 0, 1, 0), (-0.42, 0.055, -0.02, 1) ),
                16: ( (1, 0, 0, 0), (0, 1, 0, 0), (0, 0, 1, 0), (-0.42, 0.055, -0.02, 1) ),
                17: ( (1, 0, 0, 0), (0, 1, 0, 0), (0, 0, 1, 0), (-0.42, 0.055, -0.02, 1) ),
                18: ( (1, 0, 0, 0), (0, 1, 0, 0), (0, 0, 1, 0), (-0.42, 0.055, -0.02, 1) ),
                19: ( (1, 0, 0, 0), (0, 1, 0, 0), (0, 0, 1, 0), (-0.42, 0.055, -0.02, 1) ),
                20: ( (1, 0, 0, 0), (0, 1, 0, 0), (0, 0, 1, 0), (-0.42, 0.055, -0.02, 1) ),
                21: ( (1, 0, 0, 0), (0, 1, 0, 0), (0, 0, 1, 0), (-0.42, 0.055, -0.02, 1) ),
                22: ( (1, 0, 0, 0), (0, 1, 0, 0), (0, 0, 1, 0), (-0.42, 0.055, -0.02, 1) ),
                23: ( (1, 0, 0, 0), (0, 1, 0, 0), (0, 0, 1, 0), (-0.42, 0.055, -0.02, 1) ),
                24: ( (1, 0, 0, 0), (0, 1, 0, 0), (0, 0, 1, 0), (-0.42, 0.055, -0.02, 1) ),
                25: ( (1, 0, 0, 0), (0, 1, 0, 0), (0, 0, 1, 0), (-0.42, 0.055, -0.02, 1) ),
                26: ( (1, 0, 0, 0), (0, 1, 0, 0), (0, 0, 1, 0), (-0.42, 0.055, -0.02, 1) ),
                27: ( (1, 0, 0, 0), (0, 1, 0, 0), (0, 0, 1, 0), (-0.42, 0.055, -0.02, 1) ),
                28: ( (1, 0, 0, 0), (0, 1, 0, 0), (0, 0, 1, 0), (-0.42, 0.055, -0.02, 1) ),
                29: ( (1, 0, 0, 0), (0, 1, 0, 0), (0, 0, 1, 0), (-0.42, 0.055, -0.02, 1) ),
                30: ( (1, 0, 0, 0), (0, 1, 0, 0), (0, 0, 1, 0), (-0.42, 0.055, -0.02, 1) ),
                31: ( (1, 0, 0, 0), (0, 1, 0, 0), (0, 0, 1, 0), (-0.42, 0.055, -0.02, 1) ),
                32: ( (1, 0, 0, 0), (0, 1, 0, 0), (0, 0, 1, 0), (-0.42, 0.055, -0.02, 1) ),
                33: ( (1, 0, 0, 0), (0, 1, 0, 0), (0, 0, 1, 0), (-0.42, 0.055, -0.02, 1) ),
                34: ( (1, 0, 0, 0), (0, 1, 0, 0), (0, 0, 1, 0), (-0.42, 0.055, -0.02, 1) ),
                35: ( (1, 0, 0, 0), (0, 1, 0, 0), (0, 0, 1, 0), (-0.42, 0.055, -0.02, 1) ),
                36: ( (1, 0, 0, 0), (0, 1, 0, 0), (0, 0, 1, 0), (-0.42, 0.055, -0.02, 1) ),
                37: ( (1, 0, 0, 0), (0, 1, 0, 0), (0, 0, 1, 0), (-0.42, 0.055, -0.02, 1) ),
                38: ( (1, 0, 0, 0), (0, 1, 0, 0), (0, 0, 1, 0), (-0.42, 0.055, -0.02, 1) ),
                39: ( (1, 0, 0, 0), (0, 1, 0, 0), (0, 0, 1, 0), (-0.42, 0.055, -0.02, 1) ),
                40: ( (1, 0, 0, 0), (0, 1, 0, 0), (0, 0, 1, 0), (-0.42016412016333765, 0.04234893344718327, -0.01978114821957094, 1) ),
                41: ( (1, 0, 0, 0), (0, 1, 0, 0), (0, 0, 1, 0), (-0.4220951297118136, 0.05051864320672633, -0.01720646866144264, 1) ),
                42: ( (1, 0, 0, 0), (0, 1, 0, 0), (0, 0, 1, 0), (-0.4239455304058858, 0.05873526185548997, -0.014739267582538759, 1) ),
                43: ( (1, 0, 0, 0), (0, 1, 0, 0), (0, 0, 1, 0), (-0.42571489778493327, 0.06699653748884324, -0.012380110930388507, 1) ),
                44: ( (1, 0, 0, 0), (0, 1, 0, 0), (0, 0, 1, 0), (-0.4274028524628481, 0.0753002492853718, -0.010129504553167709, 1) ),
                45: ( (1, 0, 0, 0), (0, 1, 0, 0), (0, 0, 1, 0), (-0.42900903688802206, 0.08364416786861933, -0.007987925186383638, 1) ),
                46: ( (1, 0, 0, 0), (0, 1, 0, 0), (0, 0, 1, 0), (-0.43053309429004416, 0.09202601243723052, -0.005955848523946816, 1) ),
                47: ( (1, 0, 0, 0), (0, 1, 0, 0), (0, 0, 1, 0), (-0.4319747121172525, 0.10044353676326677, -0.004033691301432797, 1) ),
                48: ( (1, 0, 0, 0), (0, 1, 0, 0), (0, 0, 1, 0), (-0.43333359985369496, 0.10889448790212986, -0.002221840873468518, 1) ),
                49: ( (1, 0, 0, 0), (0, 1, 0, 0), (0, 0, 1, 0), (-0.43460946910529574, 0.117376561832862, -0.0005206817655119947, 1) ),
                50: ( (1, 0, 0, 0), (0, 1, 0, 0), (0, 0, 1, 0), (-0.43580207474280613, 0.1258874925323094, 0.0010694591834180408, 1) ),
                51: ( (1, 0, 0, 0), (0, 1, 0, 0), (0, 0, 1, 0), (-0.4369111938179674, 0.13442500911142002, 0.0025482847089581774, 1) ),
                52: ( (1, 0, 0, 0), (0, 1, 0, 0), (0, 0, 1, 0), (-0.4379366068270605, 0.14298679004973508, 0.003915502139464626, 1) ),
                53: ( (1, 0, 0, 0), (0, 1, 0, 0), (0, 0, 1, 0), (-0.43887813648094776, 0.15157055517543586, 0.005170875089405859, 1) ),
                54: ( (1, 0, 0, 0), (0, 1, 0, 0), (0, 0, 1, 0), (-0.4397356277605876, 0.16017402130920355, 0.00631419686671358, 1) ),
                55: ( (1, 0, 0, 0), (0, 1, 0, 0), (0, 0, 1, 0), (-0.44050893039365174, 0.16879485517961343, 0.0073452671082711906, 1) ),
                56: ( (1, 0, 0, 0), (0, 1, 0, 0), (0, 0, 1, 0), (-0.44119793367985327, 0.17743076813357095, 0.008263938213686749, 1) ),
                57: ( (1, 0, 0, 0), (0, 1, 0, 0), (0, 0, 1, 0), (-0.44180255671197427, 0.18607947037176437, 0.009070102306662864, 1) ),
                58: ( (1, 0, 0, 0), (0, 1, 0, 0), (0, 0, 1, 0), (-0.44232270962851783, 0.19473862263418512, 0.009763639571863162, 1) ),
                59: ( (1, 0, 0, 0), (0, 1, 0, 0), (0, 0, 1, 0), (-0.43031165208879285, 0.1939849926379914, 0.018001264115158587, 1) ),
                60: ( (1, 0, 0, 0), (0, 1, 0, 0), (0, 0, 1, 0), (-0.41808978275609987, 0.19323267379664383, 0.025901901190229195, 1) ),
                61: ( (1, 0, 0, 0), (0, 1, 0, 0), (0, 0, 1, 0), (-0.4056665747342623, 0.19248164072134305, 0.033460123359979756, 1) ),
                62: ( (1, 0, 0, 0), (0, 1, 0, 0), (0, 0, 1, 0), (-0.3930516538338952, 0.1917319168135994, 0.040670823672015674, 1) ),
                63: ( (1, 0, 0, 0), (0, 1, 0, 0), (0, 0, 1, 0), (-0.38025480891818564, 0.19098350918564544, 0.04752911944460084, 1) ),
                64: ( (1, 0, 0, 0), (0, 1, 0, 0), (0, 0, 1, 0), (-0.3672859169063879, 0.19023644107220436, 0.05403045042050569, 1) ),
                65: ( (1, 0, 0, 0), (0, 1, 0, 0), (0, 0, 1, 0), (-0.35415494862195085, 0.18949068726167545, 0.06017049519589739, 1) ),
                66: ( (1, 0, 0, 0), (0, 1, 0, 0), (0, 0, 1, 0), (-0.34087204720560454, 0.18874627099229024, 0.06594522072752741, 1) ),
                67: ( (1, 0, 0, 0), (0, 1, 0, 0), (0, 0, 1, 0), (-0.32744741073413247, 0.18800321537394127, 0.07135091195327768, 1) ),
                68: ( (1, 0, 0, 0), (0, 1, 0, 0), (0, 0, 1, 0), (-0.31389132311826906, 0.18726149533043884, 0.07638408298489147, 1) ),
                69: ( (1, 0, 0, 0), (0, 1, 0, 0), (0, 0, 1, 0), (-0.30021417309414217, 0.18652113397523973, 0.08104158528293501, 1) ),
                70: ( (1, 0, 0, 0), (0, 1, 0, 0), (0, 0, 1, 0), (-0.2864264027928919, 0.18578215429143258, 0.08532055781770208, 1) ),
                71: ( (1, 0, 0, 0), (0, 1, 0, 0), (0, 0, 1, 0), (-0.27253856033329693, 0.1850445313403798, 0.08921838022910414, 1) ),
                72: ( (1, 0, 0, 0), (0, 1, 0, 0), (0, 0, 1, 0), (-0.25856121671184235, 0.1843082881087899, 0.09273278491070183, 1) ),
                73: ( (1, 0, 0, 0), (0, 1, 0, 0), (0, 0, 1, 0), (-0.24450499470615578, 0.18357343158101158, 0.09586177447638815, 1) ),
                74: ( (1, 0, 0, 0), (0, 1, 0, 0), (0, 0, 1, 0), (-0.23038059087702525, 0.18283998456801032, 0.09860366536309509, 1) ),
                75: ( (1, 0, 0, 0), (0, 1, 0, 0), (0, 0, 1, 0), (-0.21619868956376748, 0.18210792231786208, 0.1009570261872094, 1) ),
                76: ( (1, 0, 0, 0), (0, 1, 0, 0), (0, 0, 1, 0), (-0.20197004752343117, 0.1813772676452266, 0.10292076877744648, 1) ),
                77: ( (1, 0, 0, 0), (0, 1, 0, 0), (0, 0, 1, 0), (-0.18770540502115535, 0.1806480432297043, 0.10449409691669184, 1) ),
                78: ( (1, 0, 0, 0), (0, 1, 0, 0), (0, 0, 1, 0), (-0.1734155252828495, 0.17992022446187278, 0.10567648207810741, 1) ),
                79: ( (1, 0, 0, 0), (0, 1, 0, 0), (0, 0, 1, 0), (-0.1591111724511823, 0.1791938340250812, 0.10646772400205548, 1) ),
                80: ( (1, 0, 0, 0), (0, 1, 0, 0), (0, 0, 1, 0), (-0.14480310393588552, 0.17846887881020995, 0.10686791013352716, 1) ),
                81: ( (1, 0, 0, 0), (0, 1, 0, 0), (0, 0, 1, 0), (-0.130502056215134, 0.1777453813186953, 0.10687743548145978, 1) ),
                82: ( (1, 0, 0, 0), (0, 1, 0, 0), (0, 0, 1, 0), (-0.11621874455005643, 0.17702331713438352, 0.10649696052411715, 1) ),
                83: ( (1, 0, 0, 0), (0, 1, 0, 0), (0, 0, 1, 0), (-0.10196385435597953, 0.17630270876253262, 0.10572747142821388, 1) ),
                84: ( (1, 0, 0, 0), (0, 1, 0, 0), (0, 0, 1, 0), (-0.08774802693315442, 0.17558357856871337, 0.10457024849685628, 1) ),
                85: ( (1, 0, 0, 0), (0, 1, 0, 0), (0, 0, 1, 0), (-0.07358185899426972, 0.17486590228415694, 0.10302683371461233, 1) ),
                86: ( (1, 0, 0, 0), (0, 1, 0, 0), (0, 0, 1, 0), (-0.0594758886300565, 0.17414970227831011, 0.10109909066399475, 1) ),
                87: ( (1, 0, 0, 0), (0, 1, 0, 0), (0, 0, 1, 0), (-0.045440588314751916, 0.17343500077896828, 0.09878917187126753, 1) ),
                88: ( (1, 0, 0, 0), (0, 1, 0, 0), (0, 0, 1, 0), (-0.031486366559850466, 0.17272177366681968, 0.09609948625291174, 1) ),
                89: ( (1, 0, 0, 0), (0, 1, 0, 0), (0, 0, 1, 0), (-0.01762353049501366, 0.1720100431735896, 0.09303275514346256, 1) ),
                90: ( (1, 0, 0, 0), (0, 1, 0, 0), (0, 0, 1, 0), (-0.0038623303439606817, 0.17129981605108718, 0.08959197666325838, 1) ),
                91: ( (1, 0, 0, 0), (0, 1, 0, 0), (0, 0, 1, 0), (0.00978711630242742, 0.17059111434045787, 0.08578043136501184, 1) ),
                92: ( (1, 0, 0, 0), (0, 1, 0, 0), (0, 0, 1, 0), (0.023314753768110992, 0.16988391412486648, 0.0816016524812978, 1) ),
                93: ( (1, 0, 0, 0), (0, 1, 0, 0), (0, 0, 1, 0), (0.022421290976842655, 0.16316094500541198, 0.07847453262275282, 1) ),
                94: ( (1, 0, 0, 0), (0, 1, 0, 0), (0, 0, 1, 0), (0.021494532273250034, 0.15651789098071428, 0.07523087706775217, 1) ),
                95: ( (1, 0, 0, 0), (0, 1, 0, 0), (0, 0, 1, 0), (0.020534989923676177, 0.14995727835692407, 0.07187247874854769, 1) ),
                96: ( (1, 0, 0, 0), (0, 1, 0, 0), (0, 0, 1, 0), (0.01954317463411944, 0.14348157343479429, 0.06840112513618449, 1) ),
                97: ( (1, 0, 0, 0), (0, 1, 0, 0), (0, 0, 1, 0), (0.01851962842549101, 0.13709321796497442, 0.06481871330390578, 1) ),
                98: ( (1, 0, 0, 0), (0, 1, 0, 0), (0, 0, 1, 0), (0.017464900050860196, 0.13079460333164572, 0.061127163887509, 1) ),
                99: ( (1, 0, 0, 0), (0, 1, 0, 0), (0, 0, 1, 0), (0.016379552500243408, 0.12458807560024705, 0.057328447352107445, 1) ),
                100: ( (1, 0, 0, 0), (0, 1, 0, 0), (0, 0, 1, 0), (0.01526417083716769, 0.11847593932114948, 0.05342461142010437, 1) ),
                101: ( (1, 0, 0, 0), (0, 1, 0, 0), (0, 0, 1, 0), (0.014119336352378109, 0.11246043642554551, 0.049417690609165545, 1) ),
                102: ( (1, 0, 0, 0), (0, 1, 0, 0), (0, 0, 1, 0), (0.012945661098616132, 0.1065437754583944, 0.04530982710394699, 1) ),
                103: ( (1, 0, 0, 0), (0, 1, 0, 0), (0, 0, 1, 0), (0.0117437621375411, 0.10072811007489502, 0.04110318062031779, 1) ),
                104: ( (1, 0, 0, 0), (0, 1, 0, 0), (0, 0, 1, 0), (0.010514269296425518, 0.0950155431630487, 0.036799955553794846, 1) ),
                105: ( (1, 0, 0, 0), (0, 1, 0, 0), (0, 0, 1, 0), (0.009257833217122546, 0.08940812958179772, 0.032402429150928946, 1) ),
                106: ( (1, 0, 0, 0), (0, 1, 0, 0), (0, 0, 1, 0), (0.007975098489182618, 0.08390785990251949, 0.027912857475210946, 1) ),
                107: ( (1, 0, 0, 0), (0, 1, 0, 0), (0, 0, 1, 0), (0.006666739646569823, 0.07851668271751566, 0.023333601395582354, 1) ),
                108: ( (1, 0, 0, 0), (0, 1, 0, 0), (0, 0, 1, 0), (0.005333434381380267, 0.07323648794222062, 0.018667032834447237, 1) ),
                109: ( (1, 0, 0, 0), (0, 1, 0, 0), (0, 0, 1, 0), (0.003975870905936749, 0.06806910614915025, 0.013915560535003854, 1) ),
                110: ( (1, 0, 0, 0), (0, 1, 0, 0), (0, 0, 1, 0), (0.002594759895121167, 0.06301633264200901, 0.009081671859409822, 1) ),
                111: ( (1, 0, 0, 0), (0, 1, 0, 0), (0, 0, 1, 0), (0.0011907916646971422, 0.05807985080693508, 0.004167782912906755, 1) ),
                112: ( (1, 0, 0, 0), (0, 1, 0, 0), (0, 0, 1, 0), (-0.00023528526975136673, 0.0532613692672001, -0.0008234864998870759, 1) ),
                113: ( (-0.4107431341598047, 0, 0.9117511051490864, 0), (0, 1, 0, 0), (-0.9117511051490864, 0, -0.4107431341598047, 0), (0, 0.066, 0, 1) ),
                114: ( (-0.26940263314633084, 0, 0.9630276326533022, 0), (0, 1, 0, 0), (-0.9630276326533022, 0, -0.26940263314633084, 0), (0, 0.066, 0, 1) ),
                115: ( (-0.12197296050427542, 0, 0.9925334235711272, 0), (0, 1, 0, 0), (-0.9925334235711272, 0, -0.12197296050427542, 0), (0, 0.066, 0, 1) ),
                116: ( (0.02821404508914327, 0, 0.9996019045898763, 0), (0, 1, 0, 0), (-0.9996019045898763, 0, 0.02821404508914327, 0), (0, 0.066, 0, 1) ),
                117: ( (0.1777632411558121, 0, 0.984073284920275, 0), (0, 1, 0, 0), (-0.984073284920275, 0, 0.1777632411558121, 0), (0, 0.066, 0, 1) ),
                118: ( (0.3232949116616729, 0, 0.946298261698536, 0), (0, 1, 0, 0), (-0.946298261698536, 0, 0.3232949116616729, 0), (0, 0.066, 0, 1) ),
                119: ( (0.4615170967432374, 0, 0.887131314639323, 0), (0, 1, 0, 0), (-0.887131314639323, 0, 0.4615170967432374, 0), (0, 0.066, 0, 1) ),
                120: ( (0.5893061801504131, 0, 0.8079097883034521, 0), (0, 1, 0, 0), (-0.8079097883034521, 0, 0.5893061801504131, 0), (0, 0.066, 0, 1) ),
                121: ( (0.7037741058650817, 0, 0.7104238227380926, 0), (0, 1, 0, 0), (-0.7104238227380926, 0, 0.7037741058650817, 0), (0, 0.066, 0, 1) ),
                122: ( (0.8023309472425563, 0, 0.5968794276039864, 0), (0, 1, 0, 0), (-0.5968794276039864, 0, 0.8023309472425563, 0), (0, 0.066, 0, 1) ),
                123: ( (0.882751472229192, 0, 0.4698402263293279, 0), (0, 1, 0, 0), (-0.4698402263293279, 0, 0.882751472229192, 0), (0, 0.066, 0, 1) ),
                124: ( (0.9432154394002887, 0, 0.3321816293489457, 0), (0, 1, 0, 0), (-0.3321816293489457, 0, 0.9432154394002887, 0), (0, 0.066, 0, 1) ),
                125: ( (0.982357683679945, 0, 0.18701171437900083, 0), (0, 1, 0, 0), (-0.18701171437900083, 0, 0.982357683679945, 0), (0, 0.066, 0, 1) ),
                126: ( (0.9992923380636486, 0, 0.037614134142455874, 0), (0, 1, 0, 0), (-0.037614134142455874, 0, 0.9992923380636486, 0), (0, 0.066, 0, 1) ),
                127: ( (0.9936368106175567, 0, -0.11263165001796631, 0), (0, 1, 0, 0), (0.11263165001796631, 0, 0.9936368106175567, 0), (0, 0.066, 0, 1) ),
                128: ( (0.9655187927406366, 0, -0.2603333648702441, 0), (0, 1, 0, 0), (0.2603333648702441, 0, 0.9655187927406366, 0), (0, 0.066, 0, 1) ),
                129: ( (0.9155747087900873, 0, -0.4021479238090715, 0), (0, 1, 0, 0), (0.4021479238090715, 0, 0.9155747087900873, 0), (0, 0.066, 0, 1) ),
                130: ( (0.8449322042438172, 0, -0.5348734151476257, 0), (0, 1, 0, 0), (0.5348734151476257, 0, 0.8449322042438172, 0), (0, 0.066, 0, 1) ),
                131: ( (0.7551888078396665, 0, -0.6555073336841498, 0), (0, 1, 0, 0), (0.6555073336841498, 0, 0.7551888078396665, 0), (0, 0.066, 0, 1) ),
                132: ( (0.6483749184623282, 0, -0.7613211970705723, 0), (0, 1, 0, 0), (0.7613211970705723, 0, 0.6483749184623282, 0), (0, 0.066, 0, 1) ),
                133: ( (0.5269021971096077, 0, -0.8499259230551025, 0), (0, 1, 0, 0), (0.8499259230551025, 0, 0.5269021971096077, 0), (0, 0.066, 0, 1) ),
                134: ( (0.39352006228398395, 0, -0.9193160286756722, 0), (0, 1, 0, 0), (0.9193160286756722, 0, 0.39352006228398395, 0), (0, 0.066, 0, 1) ),
                135: ( (0.2512400370583243, 0, -0.9679248130815388, 0), (0, 1, 0, 0), (0.9679248130815388, 0, 0.2512400370583243, 0), (0, 0.066, 0, 1) ),
                136: ( (0.10328037415982505, 0, -0.9946522831187824, 0), (0, 1, 0, 0), (0.9946522831187824, 0, 0.10328037415982505, 0), (0, 0.066, 0, 1) ),
                137: ( (-0.047011960029916366, 0, -0.998894326550184, 0), (0, 1, 0, 0), (0.998894326550184, 0, -0.047011960029916366, 0), (0, 0.066, 0, 1) ),
                138: ( (-0.19624364126489202, 0, -0.9805551658438689, 0), (0, 1, 0, 0), (0.9805551658438689, 0, -0.19624364126489202, 0), (0, 0.066, 0, 1) ),
                139: ( (-0.3410369536186415, 0, -0.940049890307167, 0), (0, 1, 0, 0), (0.940049890307167, 0, -0.3410369536186415, 0), (0, 0.066, 0, 1) ),
                140: ( (-0.47812273063554755, 0, -0.8782930344990832, 0), (0, 1, 0, 0), (0.8782930344990832, 0, -0.47812273063554755, 0), (0, 0.066, 0, 1) ),
                141: ( (-0.6043998646314015, 0, -0.7966811179095089, 0), (0, 1, 0, 0), (0.7966811179095089, 0, -0.6043998646314015, 0), (0, 0.066, 0, 1) ),
                142: ( (-0.7170121966357215, 0, -0.6970606213778092, 0), (0, 1, 0, 0), (0.6970606213778092, 0, -0.7170121966357215, 0), (0, 0.066, 0, 1) ),
                143: ( (-0.8134171474900427, 0, -0.5816807923330134, 0), (0, 1, 0, 0), (0.5816807923330134, 0, -0.8134171474900427, 0), (0, 0.066, 0, 1) ),
                144: ( (-0.8914326836261801, 0, -0.4531531425059597, 0), (0, 1, 0, 0), (0.4531531425059597, 0, -0.8914326836261801, 0), (0, 0.066, 0, 1) ),
                145: ( (-0.9492973578501513, 0, -0.31437958963444523, 0), (0, 1, 0, 0), (0.31437958963444523, 0, -0.9492973578501513, 0), (0, 0.066, 0, 1) ),
                146: ( (-0.985701817772672, 0, -0.16849903987753315, 0), (0, 1, 0, 0), (0.16849903987753315, 0, -0.985701817772672, 0), (0, 0.066, 0, 1) ),
                147: ( (-0.9998230488249864, 0, -0.018811460291777667, 0), (0, 1, 0, 0), (0.018811460291777667, 0, -0.9998230488249864, 0), (0, 0.066, 0, 1) ),
                148: ( (-0.9913422196044708, 0, 0.13130347912253168, 0), (0, 1, 0, 0), (-0.13130347912253168, 0, -0.9913422196044708, 0), (0, 0.066, 0, 1) ),
                149: ( (-0.9604506922998821, 0, 0.27845011700603967, 0), (0, 1, 0, 0), (-0.27845011700603967, 0, -0.9604506922998821, 0), (0, 0.066, 0, 1) ),
                150: ( (-0.9078477070693978, 0, 0.4193000605399871, 0), (0, 1, 0, 0), (-0.4193000605399871, 0, -0.9078477070693978, 0), (0, 0.066, 0, 1) ),
                151: ( (-0.8347209424872934, 0, 0.5506731772777078, 0), (0, 1, 0, 0), (-0.5506731772777078, 0, -0.8347209424872934, 0), (0, 0.066, 0, 1) ),
                152: ( (-0.7427255527094103, 0, 0.669595962765982, 0), (0, 1, 0, 0), (-0.669595962765982, 0, -0.7427255527094103, 0), (0, 0.066, 0, 1) ),
                153: ( (-0.6339386242906766, 0, 0.7733833594230262, 0), (0, 1, 0, 0), (-0.7733833594230262, 0, -0.6339386242906766, 0), (0, 0.066, 0, 1) ),
                154: ( (-0.5108206133942064, 0, 0.8596873274229224, 0), (0, 1, 0, 0), (-0.8596873274229224, 0, -0.5108206133942064, 0), (0, 0.066, 0, 1) ),
                155: ( (-0.376156751477545, 0, 0.9265560416498618, 0), (0, 1, 0, 0), (-0.9265560416498618, 0, -0.376156751477545, 0), (0, 0.066, 0, 1) ),
                156: ( (-0.2329875006518476, 0, 0.9724797296293662, 0), (0, 1, 0, 0), (-0.9724797296293662, 0, -0.2329875006518476, 0), (0, 0.066, 0, 1) ),
                157: ( (-0.08455335954778831, 0, 0.9964189527448696, 0), (0, 1, 0, 0), (-0.9964189527448696, 0, -0.08455335954778831, 0), (0, 0.066, 0, 1) ),
                158: ( (0.06579430216792903, 0, 0.997833207406045, 0), (0, 1, 0, 0), (-0.997833207406045, 0, 0.06579430216792903, 0), (0, 0.066, 0, 1) ),
                159: ( (0.21465459028814893, 0, 0.9766900259899386, 0), (0, 1, 0, 0), (-0.9766900259899386, 0, 0.21465459028814893, 0), (0, 0.066, 0, 1) ),
                160: ( (0.35866031791277786, 0, 0.93346814426348, 0), (0, 1, 0, 0), (-0.93346814426348, 0, 0.35866031791277786, 0), (0, 0.066, 0, 1) ),
                161: ( (0.49456010079958423, 0, 0.8691434327526758, 0), (0, 1, 0, 0), (-0.8691434327526758, 0, 0.49456010079958423, 0), (0, 0.066, 0, 1) ),
                162: ( (0.6192779777501125, 0, 0.7851718195871087, 0), (0, 1, 0, 0), (-0.7851718195871087, 0, 0.6192779777501125, 0), (0, 0.066, 0, 1) ),
                163: ( (0.7299980486850375, 0, 0.6834492292160682, 0), (0, 1, 0, 0), (-0.6834492292160682, 0, 0.7299980486850375, 0), (0, 0.066, 0, 1) ),
                164: ( (0.8242154774974796, 0, 0.5662762988626681, 0), (0, 1, 0, 0), (-0.5662762988626681, 0, 0.8242154774974796, 0), (0, 0.066, 0, 1) ),
                165: ( (0.8997994159117115, 0, 0.43630380599410634, 0), (0, 1, 0, 0), (-0.43630380599410634, 0, 0.8997994159117115, 0), (0, 0.066, 0, 1) ),
                166: ( (0.9550433177341955, 0, 0.29646629024437243, 0), (0, 1, 0, 0), (-0.29646629024437243, 0, 0.9550433177341955, 0), (0, 0.066, 0, 1) ),
                167: ( (0.9886967902501852, 0, 0.14992883961727077, 0), (0, 1, 0, 0), (-0.14992883961727077, 0, 0.9886967902501852, 0), (0, 0.066, 0, 1) ),
                168: ( (1, 0, 9.797174393178826e-16, 0), (0, 1, 0, 0), (-9.797174393178826e-16, 0, 1, 0), (0, 0.066, 0, 1) ),
            }
            uniform token[] xformOpOrder = ["xformOp:transform"]
        }
    }

    def Xform "Lights"
    {
        def DomeLight "Dome"
        {
            float inputs:intensity = 1
        }

        def DistantLight "Key"
        {
            float inputs:angle = 1
            float inputs:intensity = 3
            float3 xformOp:rotateXYZ = (-45, 25, 0)
            uniform token[] xformOpOrder = ["xformOp:rotateXYZ"]
        }
    }

    def Camera "Camera"
    {
        float2 clippingRange = (0.01, 100)
        float focalLength = 28
        float focusDistance = 1
        matrix4d xformOp:transform = ( (0.7568230077691596, 0, -0.6536198703460924, 0), (-0.2359078524349715, 0.9325947850645656, -0.27315646071417754, 0), (0.6095624824993433, 0.36092515411145326, 0.7058091902623975, -0), (0.62, 0.5499999999999999, 0.7799999999999999, 0.9999999999999998) )
        uniform token[] xformOpOrder = ["xformOp:transform"]
    }
}

